<svg width="16" height="13" viewBox="0 0 16 13" fill="none" xmlns="http://www.w3.org/2000/svg">
<path d="M14.2788 2.18526H11.2V0.997384C11.2 0.488293 10.7879 0.0761719 10.2788 0.0761719H5.64849C5.1394 0.0761719 4.72728 0.488293 4.72728 0.997384V2.18526H1.72122C0.896977 2.18526 0.242432 2.86405 0.242432 3.66405V4.51254L7.12728 7.71254C7.17577 7.25193 7.5394 6.88829 8.00001 6.88829C8.46061 6.88829 8.84849 7.25193 8.87274 7.71254L15.7576 4.51254V3.66405C15.7576 2.86405 15.103 2.18526 14.2788 2.18526ZM10.7152 2.18526H5.21213V0.997384C5.21213 0.75496 5.40607 0.56102 5.64849 0.56102H10.2788C10.5212 0.56102 10.7152 0.75496 10.7152 0.997384V2.18526Z" fill="#4785FF"/>
<path d="M8.41213 8.82759V7.78517C8.41213 7.56699 8.24244 7.37305 8.00001 7.37305C7.75759 7.37305 7.58789 7.54274 7.58789 7.78517V8.82759C7.58789 9.04577 7.75759 9.23971 8.00001 9.23971C8.24244 9.23971 8.41213 9.04577 8.41213 8.82759Z" fill="#4785FF"/>
<path d="M8.89698 8.82674C8.89698 9.31159 8.5091 9.72371 8.00001 9.72371C7.49092 9.72371 7.10304 9.33583 7.10304 8.82674V8.24492L0.242432 5.04492V11.4449C0.242432 12.2692 0.896977 12.9237 1.72122 12.9237H14.2788C15.103 12.9237 15.7576 12.2692 15.7576 11.4449V5.04492L8.89698 8.24492V8.82674Z" fill="#4785FF"/>
</svg>
